<svg width="37" height="37" viewBox="0 0 37 37" fill="none" xmlns="http://www.w3.org/2000/svg">
<path d="M27.7144 7.05531C27.7144 6.6874 27.7064 6.3202 27.6956 5.95229C27.6804 5.44921 27.5814 4.9613 27.4448 4.48279C27.3349 4.10115 27.1817 3.73323 26.9937 3.38194C26.6367 2.7155 26.1856 2.12279 25.6211 1.61826C25.0855 1.13903 24.4884 0.758825 23.8249 0.485599C23.5394 0.367779 23.2481 0.269476 22.9459 0.197194C22.4855 0.0873251 22.0229 0.00347798 21.548 0.00347798C21.4323 0.00347798 21.3167 0.00130952 21.201 0.00130952C16.4745 0.00130952 11.7487 0.000586697 7.02292 0.00347798C6.48876 0.00347798 5.95387 -0.0239892 5.42043 0.0656405C5.06191 0.125635 4.70773 0.199362 4.36367 0.309954C4.0861 0.398861 3.81577 0.511621 3.55122 0.63956C3.08138 0.867248 2.64986 1.15059 2.25231 1.48454C1.88222 1.79535 1.55117 2.14592 1.26132 2.53479C0.950509 2.95186 0.693907 3.40001 0.495132 3.87996C0.375144 4.16981 0.275394 4.46617 0.20239 4.77409C0.0910753 5.24537 0.00795102 5.71882 0.00433692 6.20455C0.0036141 6.3043 0.00216846 6.40405 0.00216846 6.50452V16.2503C0.00216846 19.6721 0.0036141 23.0947 0 26.5165C0 26.7478 0.0375866 26.9639 0.153238 27.1627C0.453208 27.6795 1.05098 27.8219 1.54394 27.5942C1.67622 27.5335 1.79621 27.4468 1.90969 27.3521C2.87972 26.5411 3.85191 25.733 4.82266 24.9234C5.99507 23.9462 7.16821 22.9689 8.33845 21.9888C8.42664 21.915 8.51771 21.8977 8.62686 21.8977C12.8322 21.8991 17.0376 21.8999 21.243 21.8977C21.5892 21.8977 21.934 21.8861 22.2802 21.837C22.7985 21.7633 23.2965 21.6259 23.7801 21.4365C24.1791 21.2797 24.5564 21.0751 24.912 20.8337C25.6905 20.3039 26.3266 19.6403 26.813 18.8322C26.9699 18.5713 27.1108 18.3024 27.225 18.0234C27.3291 17.7682 27.4187 17.5058 27.491 17.2362C27.577 16.9153 27.6399 16.5915 27.6761 16.264C27.7093 15.9619 27.7122 15.6554 27.7129 15.3504C27.7151 12.5856 27.7144 9.82082 27.7144 7.05531ZM13.8594 17.2579C13.2703 17.2608 12.7686 16.7707 12.7867 16.1787C12.7607 15.5889 13.2833 15.096 13.8528 15.096C14.4513 15.096 14.9472 15.5766 14.9421 16.1809C14.9371 16.7939 14.4521 17.2557 13.8594 17.2579ZM17.8291 8.9173C17.7915 9.25774 17.7395 9.59602 17.626 9.91696C17.519 10.2205 17.3809 10.514 17.2002 10.7872C16.8945 11.2477 16.5179 11.6351 16.0603 11.943C15.756 12.1483 15.4235 12.3001 15.0766 12.4208C14.953 12.4642 14.9515 12.4649 14.9501 12.5986C14.9494 12.7251 14.9306 12.848 14.9002 12.9716C14.7716 13.4985 14.2251 13.8484 13.7032 13.7595C13.2442 13.6821 12.9558 13.4082 12.8134 12.9738C12.7766 12.8632 12.786 12.7439 12.7838 12.629C12.7802 12.4555 12.7824 12.282 12.7824 12.1085H12.7874V11.4782C12.7881 11.0113 13.138 10.6138 13.5572 10.4959C13.7321 10.4468 13.9193 10.4359 14.1022 10.42C14.4152 10.3926 14.687 10.2654 14.9371 10.0868C15.198 9.90033 15.3975 9.65385 15.5204 9.36111C15.7004 8.93175 15.73 8.49156 15.571 8.03979C15.4445 7.68127 15.2298 7.39431 14.932 7.16807C14.7087 6.99893 14.4528 6.89846 14.1752 6.84425C13.8333 6.77847 13.5037 6.82401 13.1857 6.94327C12.9341 7.03796 12.7151 7.19409 12.5308 7.39215C12.3089 7.6314 12.16 7.9133 12.0884 8.22917C12.048 8.40699 12.0451 8.59347 12.0198 8.77562C11.9562 9.23389 11.6923 9.54254 11.2586 9.66325C10.7129 9.81504 10.1983 9.57506 9.96191 9.04524C9.89541 8.89489 9.88168 8.74021 9.88168 8.58335C9.88095 8.18725 9.93589 7.79693 10.0595 7.42034C10.2778 6.75679 10.6406 6.18359 11.1546 5.70653C11.508 5.37837 11.9041 5.11454 12.3501 4.93889C12.9884 4.68735 13.6505 4.58471 14.34 4.67651C14.734 4.72928 15.112 4.82541 15.472 4.98732C16.2396 5.33139 16.8395 5.867 17.2776 6.5862C17.511 6.97074 17.6722 7.38492 17.7633 7.82078C17.8378 8.18002 17.8703 8.54577 17.8291 8.9173Z" fill="#2D354B"/>
<path d="M36.9997 25.5393C36.9997 28.93 36.9997 32.3208 36.9997 35.7108C36.9997 35.8004 37.0004 35.8893 36.9975 35.979C36.9816 36.4062 36.652 36.8008 36.2603 36.9381C36.0058 37.0278 35.7724 36.9967 35.5396 36.9165C35.3893 36.8644 35.2527 36.7705 35.1269 36.6656C33.9827 35.7115 32.837 34.7588 31.6928 33.8054C30.6974 32.9756 29.7014 32.1473 28.7097 31.3132C28.6049 31.225 28.5001 31.1946 28.3671 31.1946C24.1668 31.1968 19.9672 31.1982 15.7669 31.1939C15.3527 31.1932 14.9392 31.1599 14.5272 31.092C14.0531 31.0139 13.5984 30.8773 13.1575 30.6966C12.7028 30.5101 12.2764 30.2643 11.8788 29.9709C11.4625 29.6644 11.0888 29.3117 10.7577 28.917C10.4173 28.5115 10.1347 28.0663 9.9048 27.587C9.77035 27.308 9.6547 27.0211 9.56941 26.7261C9.49423 26.4659 9.42918 26.2014 9.38437 25.931C9.29257 25.3774 9.29546 24.8222 9.29257 24.2649C9.29257 24.2331 9.29401 24.2021 9.29257 24.1703C9.28968 24.0951 9.32943 24.0662 9.39882 24.0676C9.43063 24.0683 9.46171 24.0676 9.49351 24.0676C13.3938 24.0676 17.2942 24.0676 21.1953 24.0676C21.5162 24.0676 21.8371 24.0626 22.1566 24.0358C22.3604 24.0185 22.5635 23.9867 22.7645 23.9505C22.9445 23.918 23.1266 23.9014 23.3052 23.8522C23.6731 23.7503 24.0403 23.6491 24.4002 23.5168C24.7306 23.3954 25.0464 23.2465 25.3565 23.0853C25.7931 22.8591 26.2022 22.5866 26.5925 22.2851C27.3175 21.7257 27.9305 21.0614 28.443 20.3061C28.7068 19.9172 28.9316 19.5037 29.1268 19.0744C29.2872 18.7209 29.426 18.3588 29.5315 17.9872C29.6407 17.5998 29.7274 17.2059 29.7867 16.8047C29.8662 16.2662 29.8749 15.7263 29.8763 15.1856C29.8814 13.2824 29.8785 11.3799 29.8785 9.47676C29.8785 9.29678 29.8872 9.29027 30.0635 9.28666C30.49 9.27726 30.9157 9.29027 31.34 9.32425C31.6682 9.35027 31.9927 9.41532 32.313 9.50351C32.5508 9.56928 32.7821 9.64879 33.0119 9.73553C33.335 9.85841 33.6422 10.0124 33.9386 10.1902C34.7517 10.6788 35.4189 11.3192 35.9466 12.1064C36.1829 12.4591 36.3832 12.8321 36.5393 13.226C36.7344 13.719 36.8609 14.2308 36.9419 14.7577C37.0033 15.1617 36.9975 15.5636 36.9975 15.9662C37.0012 19.1582 36.9997 22.3487 36.9997 25.5393Z" fill="#2D354B"/>
</svg>
