<svg width="40" height="40" viewBox="0 0 40 40" fill="none" xmlns="http://www.w3.org/2000/svg">
<path d="M25.1482 39.9971C25.0779 39.9971 25.0231 39.9971 24.9676 39.9971C17.3585 39.9971 9.74945 39.9987 2.14037 39.9948C1.23722 39.994 0.58821 39.5546 0.192547 38.7515C0.0697824 38.5028 -0.000592389 38.2323 0.000189553 37.9477C0.00331732 36.254 -0.00215627 34.5611 0.0119187 32.8674C0.0150465 32.4827 0.076038 32.098 0.120609 31.7148C0.151886 31.4442 0.193329 31.1753 0.241028 30.9071C0.291854 30.6224 0.345808 30.3378 0.416183 30.0571C0.498287 29.7271 0.596812 29.4018 0.692991 29.0757C0.847033 28.5534 1.04486 28.0467 1.26224 27.5486C1.53436 26.9246 1.84948 26.3217 2.20839 25.7431C2.91762 24.5991 3.76055 23.5638 4.74736 22.6458C5.43078 22.0101 6.16502 21.4424 6.95088 20.9404C7.43333 20.6323 7.93299 20.3532 8.44908 20.1069C8.98002 19.8535 9.52034 19.6182 10.0841 19.4422C10.4681 19.3226 10.8496 19.1943 11.2375 19.0903C11.5377 19.0098 11.8466 18.9598 12.1524 18.8988C12.308 18.8675 12.4651 18.8417 12.6215 18.8143C13.4074 18.6751 14.2018 18.6392 14.9978 18.6392C15.6515 18.6392 16.3045 18.6712 16.9527 18.7643C17.5423 18.8487 18.1264 18.9637 18.7043 19.1138C19.3087 19.271 19.8975 19.4711 20.4793 19.694C20.6787 19.7698 20.871 19.8629 21.0978 19.9614C21.0251 20.0044 20.9813 20.0388 20.932 20.0592C20.2345 20.3407 19.6918 20.8075 19.3056 21.4479C18.9545 22.0304 18.6206 22.6224 18.282 23.2127C18.0936 23.5419 17.9004 23.8696 17.7292 24.2082C17.4727 24.7149 17.3804 25.2599 17.4062 25.8252C17.4563 26.9059 17.9207 27.7715 18.7645 28.4392C18.956 28.5902 19.15 28.7387 19.3501 28.8787C19.444 28.9444 19.4729 29.0202 19.4862 29.132C19.5136 29.369 19.4283 29.5191 19.2297 29.652C18.9099 29.8663 18.5987 30.097 18.3344 30.3816C17.9903 30.7522 17.7393 31.1768 17.5736 31.6562C17.389 32.1902 17.3601 32.7368 17.4328 33.2873C17.4946 33.7533 17.676 34.1818 17.9114 34.5877C18.3493 35.3422 18.7879 36.096 19.2211 36.8537C19.5988 37.5145 20.1227 38.0212 20.8155 38.3332C21.4207 38.6061 22.0557 38.7155 22.725 38.6147C23.1457 38.5513 23.5351 38.4067 23.9206 38.2401C24.0559 38.1822 24.188 38.1166 24.3256 38.065C24.3749 38.0462 24.4429 38.0392 24.4891 38.0595C24.5923 38.1041 24.6908 38.1635 24.7823 38.2292C24.8175 38.2542 24.8402 38.3136 24.8456 38.3597C24.8769 38.6021 24.8894 38.8469 24.9316 39.087C24.9793 39.3544 25.0521 39.6171 25.1146 39.8814C25.1224 39.9142 25.1326 39.9447 25.1482 39.9971Z" fill="#2D354B"/>
<path d="M19.5988 32.7805C19.5941 32.3035 19.7928 31.9673 20.1321 31.7093C20.6107 31.3449 21.0939 30.9868 21.5748 30.6263C21.6108 30.5989 21.6467 30.5708 21.6835 30.545C21.7562 30.4926 21.7687 30.4269 21.757 30.337C21.6898 29.8178 21.646 29.297 21.6929 28.7731C21.714 28.5354 21.7382 28.2984 21.7648 28.0615C21.775 27.9731 21.7226 27.9262 21.6616 27.8809C21.4208 27.701 21.1799 27.5212 20.9391 27.3413C20.667 27.1373 20.3933 26.9339 20.1235 26.726C19.9124 26.5641 19.749 26.3655 19.6653 26.1067C19.5543 25.7665 19.5644 25.4318 19.7333 25.1159C19.928 24.7515 20.1392 24.395 20.3448 24.0361C20.5982 23.5935 20.8539 23.1517 21.1088 22.7107C21.2714 22.4284 21.481 22.2008 21.7953 22.0796C22.0956 21.9631 22.3998 21.9491 22.6938 22.0632C23.2005 22.2595 23.697 22.4816 24.1982 22.6927C24.3335 22.7498 24.4696 22.8061 24.6041 22.8671C24.6846 22.9038 24.7393 22.8694 24.805 22.8241C25.1366 22.5965 25.4634 22.3596 25.8098 22.1563C26.1015 21.9858 26.4174 21.8544 26.7255 21.7114C26.8209 21.6668 26.8748 21.6167 26.8873 21.501C26.9491 20.9482 27.0218 20.3961 27.0938 19.8441C27.1157 19.676 27.1297 19.5031 27.1798 19.3428C27.3127 18.9104 27.6028 18.6266 28.0407 18.5054C28.165 18.471 28.2964 18.4467 28.4246 18.446C29.3395 18.4413 30.2544 18.4405 31.1692 18.4444C31.6595 18.4467 32.0458 18.6516 32.3031 19.0746C32.4321 19.2873 32.4727 19.5282 32.5001 19.7721C32.5611 20.3195 32.6315 20.8661 32.6893 21.4134C32.7073 21.5855 32.7793 21.673 32.9482 21.7426C33.5847 22.0038 34.1758 22.351 34.7232 22.7701C34.7545 22.7943 34.7896 22.8147 34.8186 22.842C34.8772 22.8983 34.9398 22.8936 35.007 22.8639C35.2612 22.7529 35.5145 22.6395 35.7694 22.5316C36.1447 22.3721 36.5162 22.2016 36.8985 22.0609C37.4295 21.8654 38.0159 22.0406 38.349 22.5136C38.489 22.7122 38.6063 22.9273 38.7283 23.1384C39.0888 23.7616 39.4485 24.3848 39.8035 25.0111C39.9278 25.2301 40.0091 25.4623 39.9997 25.7219C39.9864 26.0808 39.8558 26.3889 39.5892 26.6227C39.3554 26.8276 39.0974 27.0059 38.8487 27.1943C38.5461 27.4242 38.2443 27.6549 37.9362 27.8785C37.84 27.9481 37.8126 28.0224 37.8298 28.1381C37.9401 28.8622 37.9401 29.5871 37.8298 30.3104C37.8118 30.4261 37.8416 30.4965 37.9393 30.5676C38.4288 30.9265 38.9097 31.2972 39.3984 31.6569C39.6885 31.8703 39.8965 32.1401 39.9763 32.4904C40.0349 32.7493 40.0138 33.0135 39.8879 33.2528C39.7276 33.5586 39.5532 33.8573 39.382 34.1575C39.0692 34.7033 38.7556 35.2483 38.4382 35.7918C38.292 36.0428 38.0926 36.2352 37.8181 36.3517C37.503 36.4846 37.1839 36.4979 36.8727 36.3728C36.305 36.1452 35.742 35.9067 35.1853 35.6534C34.989 35.5642 34.8491 35.5596 34.6692 35.7019C34.1195 36.1366 33.5096 36.4736 32.8598 36.7364C32.7691 36.7731 32.7159 36.8318 32.7042 36.9373C32.6745 37.2141 32.6323 37.4894 32.5994 37.7654C32.5611 38.0868 32.5298 38.409 32.4923 38.7311C32.4548 39.0525 32.3633 39.3528 32.1287 39.592C31.8808 39.8446 31.5852 39.9963 31.2255 39.9971C30.2708 39.9994 29.316 40.0026 28.3613 39.9963C27.7115 39.9916 27.1923 39.4959 27.1133 38.85C27.0343 38.2017 26.9546 37.5535 26.8819 36.9045C26.8709 36.8044 26.8091 36.77 26.7372 36.7364C26.5065 36.6285 26.2719 36.5292 26.0444 36.415C25.6128 36.1984 25.2077 35.9372 24.83 35.6362C24.7417 35.5658 24.6713 35.5463 24.5564 35.5971C23.966 35.8583 23.3694 36.1053 22.7759 36.3595C22.1816 36.6136 21.5271 36.3775 21.2261 35.9052C21.022 35.5854 20.8351 35.2546 20.6451 34.9262C20.3636 34.4414 20.0844 33.9542 19.8053 33.4679C19.6763 33.2427 19.5777 33.0089 19.5988 32.7805ZM32.8293 29.2094C32.841 27.5509 31.475 26.1692 29.7868 26.1723C28.1361 26.1755 26.745 27.4962 26.7442 29.2157C26.7435 30.9437 28.1447 32.266 29.8016 32.2613C31.4859 32.2566 32.8489 30.8734 32.8293 29.2094Z" fill="#2D354B"/>
<path d="M23.1246 8.19085C23.1183 12.7019 19.5026 16.3911 14.9283 16.388C10.3844 16.3856 6.73351 12.7355 6.73664 8.18538C6.73976 3.62196 10.4337 -0.00468711 14.9423 4.5469e-06C19.4729 0.0046962 23.1199 3.67592 23.1246 8.19085Z" fill="#2D354B"/>
</svg>
