<svg width="33" height="32" viewBox="0 0 33 32" fill="none" xmlns="http://www.w3.org/2000/svg">
<path d="M16.8888 25.2625C16.9506 25.2562 16.9953 25.2549 17.0394 25.2461C17.5534 25.1421 18.0429 24.9752 18.4965 24.7049C19.0565 24.371 19.5404 23.9502 19.9549 23.4488C20.2503 23.0916 20.4992 22.7035 20.6926 22.2814C20.8671 21.9009 20.9874 21.5047 21.0441 21.0889C21.0932 20.7305 21.1487 20.3733 21.1934 20.0148C21.2325 19.7017 21.2627 19.3867 21.2942 19.0724C21.3194 18.8261 21.3219 18.5766 21.3679 18.3347C21.4605 17.8509 21.7452 17.5283 22.224 17.3765C22.7419 17.2127 23.3416 17.4792 23.5923 17.9523C23.7133 18.1803 23.763 18.4235 23.7359 18.6818C23.6736 19.2784 23.6194 19.8756 23.5495 20.4715C23.5073 20.8306 23.4455 21.1872 23.3851 21.5431C23.3491 21.7548 23.3032 21.9646 23.2547 22.1737C23.1532 22.6122 22.9869 23.0273 22.7904 23.4305C22.5207 23.9836 22.1869 24.4958 21.7956 24.9701C21.1241 25.7853 20.324 26.4449 19.3923 26.9426C18.9841 27.1605 18.5538 27.3281 18.1084 27.451C17.8886 27.5114 17.6618 27.548 17.4382 27.594C17.2725 27.628 17.1062 27.6601 16.9398 27.691C16.8636 27.7048 16.7861 27.7155 16.7087 27.7225C16.6255 27.73 16.582 27.7666 16.5581 27.8523C16.485 28.1112 16.4126 28.372 16.3181 28.624C16.034 29.3806 15.6106 30.0464 14.9945 30.5794C14.6379 30.8874 14.2392 31.1193 13.7837 31.2566C13.3352 31.392 12.8847 31.4072 12.4261 31.336C12.2094 31.302 11.9908 31.2774 11.7747 31.2383C11.5454 31.1974 11.3168 31.1489 11.0893 31.096C10.8802 31.0474 10.6729 30.9914 10.465 30.9359C10.2931 30.89 10.1198 30.8459 9.95035 30.7917C9.65931 30.6984 9.36826 30.6021 9.08037 30.4987C8.78806 30.3935 8.49576 30.2871 8.21038 30.1661C7.80342 29.9929 7.39583 29.8184 7.00021 29.6206C6.50191 29.3717 6.01053 29.109 5.52609 28.8337C5.03786 28.5559 4.55909 28.2598 4.11307 27.9152C3.81131 27.6822 3.53791 27.4182 3.28151 27.1372C2.61752 26.4096 2.08457 25.5932 1.63603 24.7182C1.35003 24.16 1.10686 23.5842 0.90653 22.9914C0.766047 22.5763 0.651393 22.1529 0.561308 21.7227C0.432794 21.1072 0.362238 20.4854 0.31184 19.8598C0.258293 19.2028 0.199706 18.5457 0.148049 17.888C0.12222 17.5592 0.098281 17.2304 0.0850517 16.9009C0.0485135 16.0032 -0.000623972 15.1067 5.99662e-06 14.2084C0.000635965 13.0392 0.0384341 11.8725 0.12285 10.707C0.169467 10.0676 0.211675 9.42757 0.269632 8.78941C0.31121 8.33395 0.372317 7.87974 0.430904 7.42553C0.475632 7.08094 0.5191 6.73509 0.582727 6.39364C0.632494 6.12465 0.700531 5.85754 0.781797 5.5961C0.943698 5.07512 1.17238 4.58249 1.45208 4.11379C1.65367 3.7755 1.87731 3.45232 2.12993 3.14994C2.30002 2.94709 2.45688 2.72786 2.64902 2.54832C3.18828 2.04497 3.76029 1.58069 4.41293 1.22854C4.76257 1.04017 5.12291 0.874493 5.50215 0.75039C5.83792 0.640145 6.17684 0.554469 6.52585 0.498402C6.94603 0.430366 7.36244 0.33965 7.78326 0.278543C8.21794 0.215547 8.65577 0.171449 9.09297 0.127981C9.41173 0.0964826 9.73238 0.0838832 10.0518 0.0542747C10.7693 -0.0125019 11.4887 0.0051372 12.2082 0.000727424C12.4828 -0.000532513 12.7581 -0.00179245 13.0328 0.0120669C13.5771 0.0404154 14.1207 0.0769536 14.6638 0.116012C14.9788 0.13869 15.2931 0.170189 15.6075 0.204837C15.821 0.228146 16.034 0.262164 16.2463 0.294923C16.5675 0.34469 16.8895 0.389418 17.2082 0.451155C17.5534 0.518561 17.8987 0.591008 18.2382 0.683613C18.9463 0.876383 19.587 1.21468 20.1873 1.63172C20.8463 2.08907 21.4202 2.63588 21.9172 3.26522C22.316 3.77046 22.6461 4.31727 22.9101 4.90251C23.0543 5.22316 23.1702 5.55516 23.2578 5.89723C23.3762 6.35963 23.4493 6.82895 23.506 7.30143C23.5577 7.72855 23.6118 8.15567 23.6604 8.58278C23.6925 8.86942 23.7259 9.15668 23.7416 9.44458C23.77 9.95548 23.569 10.3549 23.1173 10.6081C22.5195 10.9433 21.7868 10.6913 21.4851 10.1054C21.4044 9.94981 21.3654 9.78287 21.3515 9.60585C21.3257 9.2726 21.2873 8.94061 21.252 8.60798C21.2249 8.35285 21.1991 8.09771 21.1669 7.8432C21.1367 7.60255 21.1027 7.36254 21.0617 7.12378C21.0239 6.90329 20.9817 6.6828 20.9288 6.46546C20.8337 6.0711 20.6636 5.70698 20.4576 5.3605C19.9883 4.57241 19.3684 3.92858 18.5885 3.4435C18.242 3.22805 17.8747 3.05733 17.4766 2.95465C17.0507 2.8444 16.6186 2.77007 16.1839 2.70707C15.799 2.65163 15.4141 2.59557 15.0279 2.54706C14.7734 2.51493 14.5176 2.49162 14.2625 2.47146C13.3345 2.39902 12.4047 2.37634 11.4749 2.39587C10.8934 2.40784 10.312 2.42988 9.73175 2.47209C9.23912 2.508 8.749 2.57919 8.25763 2.63462C8.18959 2.64218 8.12093 2.64722 8.05289 2.65667C8.00501 2.6636 7.95713 2.67557 7.91556 2.68376C7.89981 2.74928 7.93572 2.76062 7.97099 2.77385C8.26204 2.8822 8.55623 2.98237 8.84224 3.10206C9.22967 3.26333 9.61521 3.4309 9.99382 3.61171C10.7655 3.97961 11.5076 4.40169 12.234 4.85274C12.9131 5.27356 13.5147 5.78132 14.0294 6.39112C14.4376 6.87431 14.7961 7.39277 15.1155 7.93896C15.3668 8.36922 15.5936 8.81272 15.7914 9.26945C15.9716 9.68397 16.1404 10.1042 16.2614 10.5407C16.3641 10.9105 16.473 11.279 16.5537 11.6539C16.6211 11.9663 16.6564 12.2857 16.6973 12.6039C16.7357 12.9037 16.7654 13.2042 16.795 13.5047C16.8227 13.792 16.8485 14.0793 16.8687 14.3672C16.8989 14.8012 16.9266 15.2352 16.9499 15.6699C16.9846 16.3333 17.0249 16.9966 17.0438 17.66C17.0665 18.4569 17.0715 19.2538 17.0797 20.0507C17.0917 21.2055 17.0507 22.3596 16.9915 23.5124C16.965 24.0246 16.9235 24.5361 16.8901 25.0483C16.885 25.1125 16.8888 25.1755 16.8888 25.2625Z" fill="#4B2D2F"/>
<path d="M28.14 12.8169C28.1104 12.7847 28.0821 12.7514 28.0512 12.7205C27.3589 12.0282 26.6678 11.3352 25.9736 10.6447C25.7096 10.3827 25.5654 10.0715 25.5843 9.6979C25.6101 9.18826 25.9585 8.76366 26.4095 8.62443C26.8826 8.47891 27.2953 8.59042 27.6461 8.93186C27.9385 9.21597 28.2245 9.50639 28.5124 9.79428C29.6192 10.9024 30.7248 12.0118 31.8329 13.118C32.0181 13.3026 32.1762 13.5086 32.2241 13.765C32.2575 13.9451 32.2556 14.1417 32.2222 14.3225C32.1769 14.5694 32.0288 14.7698 31.8493 14.9487C30.4615 16.3327 29.0768 17.7199 27.6915 19.1065C27.5176 19.2803 27.3274 19.4215 27.0823 19.4838C26.6275 19.5997 26.2394 19.4851 25.915 19.1575C25.4665 18.7046 25.4557 17.9725 25.9181 17.5001C26.2256 17.1857 26.538 16.8764 26.8492 16.5658C27.2575 16.1576 27.6663 15.7506 28.0745 15.343C28.0934 15.3241 28.1098 15.3034 28.1388 15.2706C28.0966 15.2593 28.0689 15.2486 28.0399 15.2448C28.0084 15.241 27.9756 15.2441 27.9435 15.2441C25.2913 15.2441 22.6392 15.2435 19.987 15.2454C19.7325 15.2454 19.4988 15.1887 19.2821 15.057C18.8581 14.8 18.637 14.2305 18.7541 13.7864C18.8575 13.3964 19.0798 13.118 19.444 12.9523C19.5731 12.8937 19.7092 12.8528 19.8541 12.8528C19.9322 12.8528 20.0097 12.8509 20.0878 12.8509C22.7173 12.8509 25.3461 12.8509 27.9756 12.8509C28.0254 12.8509 28.0745 12.8509 28.1243 12.8509C28.1287 12.8402 28.1344 12.8282 28.14 12.8169Z" fill="#4B2D2F"/>
</svg>
