<svg width="48" height="46" viewBox="0 0 48 46" fill="none" xmlns="http://www.w3.org/2000/svg">
<path d="M15.8687 18.8091C15.0696 19.0245 14.3384 19.3051 13.6966 19.7811C13.195 20.1538 12.7586 20.5874 12.41 21.1046C12.0912 21.5792 12.1564 22.0794 12.5687 22.3614C12.9753 22.6391 13.4444 22.5484 13.7674 22.1007C15.0001 20.3918 16.8223 20.1212 18.6884 20.2912C19.9976 20.4103 21.2842 20.5945 22.585 20.3437C22.8995 20.2827 22.9675 20.3621 22.9675 20.671C22.959 27.7556 22.9604 34.8403 22.9661 41.9235C22.9661 42.1729 22.8882 42.3556 22.7323 42.5398C19.1957 46.7184 12.2428 45.5069 10.2874 40.3748C10.1826 40.0999 10.1939 39.8774 10.3229 39.6238C11.4819 37.344 13.4599 36.5491 15.8815 36.5717C16.3051 36.576 16.7288 36.6313 17.1525 36.6653C17.7674 36.7134 18.1415 36.4683 18.2109 35.9696C18.2817 35.4609 17.9913 35.0698 17.399 34.999C14.1316 34.6107 11.2127 35.152 9.23891 38.1289C9.11705 38.3131 9.00795 38.3146 8.80674 38.2706C5.52656 37.5608 2.97183 34.2211 3.17445 30.8729C3.24813 29.6458 2.88257 28.5916 2.07067 27.6663C-0.693761 24.5165 -0.68951 20.5831 2.07917 17.412C2.88823 16.4854 3.24672 15.4283 3.17445 14.2013C2.98033 10.8474 5.55773 7.53888 8.89318 6.81625C9.15956 6.75815 9.25449 6.812 9.37352 7.03729C10.5538 9.2477 12.3675 10.6023 14.8514 11.0373C15.7483 11.1946 16.6523 11.145 17.5506 11.0614C18.0905 11.0118 18.4234 10.6051 18.3823 10.1446C18.3384 9.64727 17.936 9.31571 17.3636 9.39506C15.8772 9.60335 14.473 9.38939 13.1624 8.65542C11.71 7.84352 10.8825 6.53853 10.3285 5.02383C10.2548 4.82405 10.3229 4.6526 10.4022 4.4684C12.4978 -0.458263 19.1149 -1.53088 22.6714 2.47903C22.8839 2.71849 22.9704 2.96079 22.9704 3.28385C22.9604 8.19492 22.9562 13.106 22.976 18.0185C22.9774 18.4733 22.8499 18.6065 22.4107 18.6731C21.297 18.8417 20.196 18.8956 19.0936 18.6263C17.5789 18.2551 16.5191 17.361 15.941 15.9073C15.8886 15.7769 15.8446 15.6409 15.778 15.5176C15.5513 15.0911 15.1248 14.931 14.7068 15.1067C14.2832 15.2852 14.0891 15.6806 14.2237 16.1439C14.4688 16.987 14.908 17.7252 15.4847 18.3841C15.5995 18.5172 15.7185 18.6448 15.8687 18.8091Z" fill="#2D3548"/>
<path d="M24.6622 8.83821C24.6622 6.98346 24.6707 5.1287 24.6537 3.27394C24.6509 2.94663 24.7458 2.70291 24.964 2.47337C27.0356 0.295553 29.5534 -0.499344 32.4411 0.309722C35.3303 1.11879 37.0462 3.145 37.7149 6.03836C37.8226 6.50595 37.9927 6.68023 38.4588 6.761C41.9728 7.37453 44.6466 10.7553 44.4454 14.292C44.3759 15.4992 44.7457 16.5477 45.5661 17.4376C46.9179 18.9041 47.6193 20.6313 47.6023 22.6263C47.5867 24.4018 47.0256 26.01 45.8339 27.3263C44.8393 28.4258 44.4057 29.6274 44.4397 31.1208C44.5205 34.5526 41.9076 37.6883 38.5212 38.3358C38.0082 38.4336 37.8127 38.6093 37.688 39.152C37.0277 42.0099 35.2934 43.9823 32.4511 44.78C29.5874 45.582 27.0781 44.8183 25.0051 42.6674C24.7571 42.4109 24.6523 42.1417 24.6537 41.7761C24.6665 38.0836 24.6721 34.3911 24.6495 30.7C24.6466 30.2409 24.7798 30.1545 25.2049 30.1687C26.2123 30.2012 27.2226 30.1743 28.2314 30.18C29.7433 30.1885 30.8117 31.1945 30.8825 32.7007C30.9123 33.3355 30.8698 33.9731 30.8981 34.6079C30.9123 34.9225 30.704 34.972 30.5056 35.0826C29.4911 35.6465 28.9838 36.8126 29.2573 37.9263C29.5251 39.016 30.5155 39.8123 31.642 39.8406C32.828 39.8704 33.8241 39.1647 34.1698 38.0496C34.5212 36.9189 34.0451 35.6805 32.9767 35.1067C32.6537 34.9338 32.5828 34.7467 32.58 34.4152C32.5757 33.4828 32.6763 32.542 32.4256 31.6224C31.931 29.7988 30.3143 28.5194 28.4256 28.4868C27.3104 28.4669 26.1953 28.4655 25.0802 28.491C24.7231 28.4995 24.6395 28.3904 24.6509 28.0518C24.6764 27.3461 24.6679 26.6391 24.6537 25.932C24.648 25.6869 24.7075 25.5991 24.9725 25.6005C28.1408 25.6132 31.309 25.5948 34.4773 25.626C35.6292 25.6373 36.6225 26.5994 36.7798 27.7443C36.886 28.5179 36.7954 29.2972 36.8336 30.0737C36.8478 30.3713 36.631 30.4039 36.4539 30.503C35.4323 31.0741 34.9264 32.2175 35.1942 33.3426C35.4507 34.4209 36.4652 35.2427 37.5733 35.271C38.7578 35.3022 39.7525 34.5994 40.1053 33.4843C40.4695 32.3323 39.9778 31.0911 38.8825 30.5101C38.6019 30.3614 38.5226 30.2027 38.5198 29.9051C38.5113 28.9373 38.6232 27.9597 38.3611 27.0061C37.8779 25.2392 36.2697 23.9455 34.4319 23.9271C31.3529 23.8973 28.2725 23.9044 25.1921 23.9243C24.7458 23.9271 24.6169 23.8151 24.648 23.3745C24.6891 22.795 24.6849 22.2069 24.6495 21.6274C24.6254 21.2363 24.7699 21.1726 25.1255 21.174C28.1167 21.1882 31.1078 21.1896 34.1004 21.1797C36.2881 21.1726 37.9728 19.8761 38.422 17.8442C38.6104 16.9926 38.5254 16.1184 38.5183 15.2555C38.5155 14.9225 38.5906 14.7355 38.9165 14.564C39.9594 14.0128 40.4468 12.7872 40.1308 11.6692C39.8191 10.5669 38.8003 9.81306 37.637 9.82298C36.5077 9.8329 35.513 10.5995 35.2127 11.6891C34.9038 12.8113 35.3997 14.0185 36.4482 14.5768C36.7429 14.7341 36.8535 14.8956 36.8336 15.2215C36.7925 15.9257 36.8775 16.6356 36.7812 17.3384C36.6197 18.5088 35.6179 19.4609 34.4348 19.4723C31.2849 19.4992 28.1337 19.4836 24.9824 19.4935C24.733 19.4949 24.6466 19.4354 24.6523 19.1733C24.6693 18.4322 24.6735 17.6883 24.6509 16.9473C24.6409 16.6483 24.7571 16.6044 25.015 16.6072C26.0593 16.6186 27.1036 16.6143 28.1478 16.6115C30.7139 16.603 32.5233 14.8375 32.5828 12.2785C32.5956 11.7316 32.6183 11.1804 32.5743 10.6363C32.5432 10.2594 32.7316 10.129 33.0122 9.96892C34.0238 9.3894 34.4957 8.20768 34.1896 7.10248C33.8935 6.03553 32.9116 5.27322 31.8078 5.25339C30.6147 5.23213 29.637 5.93493 29.2927 7.05855C28.947 8.18926 29.433 9.43899 30.4999 9.99584C30.8329 10.1701 30.908 10.3614 30.891 10.6887C30.8556 11.3759 30.9392 12.0674 30.8386 12.7518C30.6643 13.9349 29.6937 14.8616 28.5007 14.9013C27.3161 14.9423 26.1287 14.8998 24.9428 14.9225C24.5758 14.9296 24.6594 14.7043 24.658 14.5102C24.6622 12.6186 24.6622 10.7284 24.6622 8.83821Z" fill="#2D3548"/>
</svg>
