<svg viewBox="0 0 40 40" xmlns="http://www.w3.org/2000/svg">
<path fill-rule="evenodd" clip-rule="evenodd" d="M0.855821 0H0.869244H23.0254H23.159C23.6389 0 24.0283 0.390801 24.0283 0.872217C24.0283 1.11363 23.9307 1.33168 23.7738 1.48956L1.52154 23.7253C1.30387 23.8407 1.20847 24.0772 0.869244 24.0708C0.389385 24.0609 0 23.68 0 23.1979L0.0247419 23.1391L0 23.1285V0.872926C0 0.872218 0 0.872217 0 0.872217V0.858753L0.00990365 0.849558C0.0523065 0.749027 0.115201 0.39576 0.254424 0.255583C0.394353 0.115406 0.746288 0.0523818 0.846642 0.0099039L0.855821 0Z" fill="#2D3548"/>
<path fill-rule="evenodd" clip-rule="evenodd" d="M15.4912 28.3186L15.535 28.337L15.5803 28.3186H16.8771H28.246H38.1584C38.993 28.4057 39.1591 29.28 38.6566 29.6701L28.523 39.7607C28.3449 39.8606 28.1032 39.9809 27.8622 39.9965H26.5993V40H5.57036L5.56543 39.9873L5.53575 40C5.05448 40 4.66437 39.6113 4.66437 39.1321C4.66437 38.8928 4.76188 38.6761 4.91948 38.519L4.97887 38.4942L14.8078 28.6308L14.8594 28.6103L14.875 28.5728C15.0326 28.4156 15.2502 28.3186 15.4912 28.3186Z" fill="#2D3548"/>
<path fill-rule="evenodd" clip-rule="evenodd" d="M39.1294 4.74341C39.6107 4.74341 40.0001 5.1335 40.0001 5.61421L39.9916 25.2149L39.9032 25.6531C39.716 26.0963 39.2771 26.4071 38.7661 26.4071H29.458C28.9471 26.4071 28.5082 26.0963 28.3209 25.6531L28.2686 25.3926V15.5908L28.2771 15.5703C28.2764 15.5682 28.2757 15.5668 28.275 15.5647C28.275 15.3247 28.3725 15.1066 28.5301 14.9487L38.504 5.02234L38.5139 4.99828C38.6715 4.84111 38.8891 4.74341 39.1294 4.74341Z" fill="#2D3548"/>
</svg>